<?xml version="1.0" standalone="no"?><svg xmlns="http://www.w3.org/2000/svg" viewBox="0 0 1440 320"><path fill="#f09053" fill-opacity="0.9" d="M0,160L30,170.7C60,181,120,203,180,218.7C240,235,300,245,360,224C420,203,480,149,540,149.3C600,149,660,203,720,208C780,213,840,171,900,128C960,85,1020,43,1080,53.3C1140,64,1200,128,1260,144C1320,160,1380,128,1410,112L1440,96L1440,320L1410,320C1380,320,1320,320,1260,320C1200,320,1140,320,1080,320C1020,320,960,320,900,320C840,320,780,320,720,320C660,320,600,320,540,320C480,320,420,320,360,320C300,320,240,320,180,320C120,320,60,320,30,320L0,320Z"></path></svg>